<svg data-logo="logo" xmlns="http://www.w3.org/2000/svg" viewBox="0 0 249 43">
        <g style="opacity: 1;" id="logogram" transform="translate(0, 1) rotate(0)"><path d="M37.5569 2.04585C38.4821 1.08338 39.7385 0.542663 41.0469 0.542664C46.9335 0.542664 52.4811 0.542667 57.9442 0.542678C68.932 0.542701 74.4342 14.3629 66.6646 22.4456L49.7407 40.0517C48.9637 40.86 47.6352 40.2875 47.6352 39.1444V23.6376L49.591 21.6029C51.145 19.9864 50.0444 17.2223 47.8468 17.2223H22.9684L37.5569 2.04585Z" fill="#3A04FF"></path><path d="M33.0467 38.8142C32.1215 39.7767 30.8651 40.3174 29.5567 40.3174C23.6701 40.3174 18.1225 40.3174 12.6594 40.3174C1.67159 40.3173 -3.83061 26.4972 3.93897 18.4144L20.8629 0.808361C21.6399 8.48472e-05 22.9684 0.57254 22.9684 1.71562L22.9684 17.2223L21.0126 19.2571C19.4586 20.8737 20.5592 23.6377 22.7568 23.6377L47.6352 23.6376L33.0467 38.8142Z" fill="#3A04FF"></path></g>
        <g style="opacity: 1;" id="logotype" transform="translate(77, 1.5)"><path fill="#1473cc" d="M13.52 33L8.31 33L8.31 7.54L18.24 7.54Q21.14 7.54 23.18 8.64Q25.21 9.74 26.28 11.68Q27.35 13.62 27.35 16.13L27.35 16.13Q27.35 18.66 26.26 20.58Q25.17 22.51 23.12 23.59Q21.06 24.68 18.12 24.68L18.12 24.68L11.73 24.68L11.73 20.47L17.28 20.47Q18.89 20.47 19.92 19.92Q20.95 19.36 21.46 18.39Q21.96 17.41 21.96 16.13L21.96 16.13Q21.96 14.85 21.46 13.88Q20.95 12.90 19.91 12.37Q18.87 11.84 17.26 11.84L17.26 11.84L13.52 11.84L13.52 33ZM37.22 33.38L37.22 33.38Q34.30 33.38 32.18 32.18Q30.06 30.98 28.92 28.78Q27.79 26.57 27.79 23.55L27.79 23.55Q27.79 20.59 28.92 18.37Q30.04 16.15 32.11 14.90Q34.18 13.65 36.96 13.65L36.96 13.65Q38.84 13.65 40.47 14.25Q42.09 14.85 43.32 16.06Q44.55 17.26 45.24 19.07Q45.94 20.88 45.94 23.34L45.94 23.34L45.94 24.78L29.89 24.78L29.89 21.57L43.42 21.57L41.03 22.42Q41.03 20.93 40.58 19.83Q40.13 18.73 39.23 18.12Q38.33 17.52 37.00 17.52L37.00 17.52Q35.68 17.52 34.75 18.13Q33.82 18.75 33.34 19.80Q32.86 20.85 32.86 22.20L32.86 22.20L32.86 24.47Q32.86 26.13 33.42 27.26Q33.97 28.39 34.97 28.95Q35.97 29.51 37.31 29.51L37.31 29.51Q38.21 29.51 38.95 29.26Q39.68 29.00 40.20 28.50Q40.72 27.99 41.00 27.26L41.00 27.26L45.65 28.13Q45.18 29.70 44.04 30.89Q42.89 32.08 41.18 32.73Q39.46 33.38 37.22 33.38ZM52.29 21.94L52.29 21.94L52.29 33L47.17 33L47.17 13.89L52.00 13.89L52.09 18.66L51.78 18.66Q52.53 16.27 54.06 14.96Q55.59 13.65 58.02 13.65L58.02 13.65Q60.00 13.65 61.47 14.52Q62.94 15.38 63.76 17.00Q64.58 18.61 64.58 20.85L64.58 20.85L64.58 33L59.45 33L59.45 21.74Q59.45 19.96 58.54 18.95Q57.62 17.94 56.00 17.94L56.00 17.94Q54.92 17.94 54.08 18.41Q53.23 18.88 52.76 19.77Q52.29 20.66 52.29 21.94ZM71.81 21.94L71.81 21.94L71.81 33L66.68 33L66.68 13.89L71.52 13.89L71.60 18.66L71.29 18.66Q72.05 16.27 73.58 14.96Q75.11 13.65 77.53 13.65L77.53 13.65Q79.51 13.65 80.98 14.52Q82.45 15.38 83.27 17.00Q84.09 18.61 84.09 20.85L84.09 20.85L84.09 33L78.97 33L78.97 21.74Q78.97 19.96 78.05 18.95Q77.14 17.94 75.52 17.94L75.52 17.94Q74.44 17.94 73.59 18.41Q72.75 18.88 72.28 19.77Q71.81 20.66 71.81 21.94ZM86.06 39.77L86.06 39.77L87.24 35.91L87.87 36.06Q88.89 36.33 89.70 36.21Q90.50 36.09 90.99 35.56Q91.48 35.03 91.58 34.08L91.58 34.08L91.71 33.05L84.54 13.89L89.99 13.89L93.20 23.81Q93.78 25.69 94.15 27.57Q94.52 29.45 95.00 31.50L95.00 31.50L93.80 31.50Q94.26 29.45 94.72 27.56Q95.18 25.67 95.80 23.81L95.80 23.81L99.15 13.89L104.53 13.89L96.41 35.26Q95.83 36.79 94.93 37.92Q94.02 39.05 92.67 39.67Q91.32 40.28 89.41 40.28L89.41 40.28Q88.38 40.28 87.49 40.14Q86.60 39.99 86.06 39.77ZM110.32 33L105.11 33L105.11 7.54L115.04 7.54Q117.95 7.54 119.98 8.64Q122.01 9.74 123.08 11.68Q124.15 13.62 124.15 16.13L124.15 16.13Q124.15 18.66 123.06 20.58Q121.98 22.51 119.92 23.59Q117.86 24.68 114.92 24.68L114.92 24.68L108.53 24.68L108.53 20.47L114.08 20.47Q115.69 20.47 116.72 19.92Q117.76 19.36 118.26 18.39Q118.77 17.41 118.77 16.13L118.77 16.13Q118.77 14.85 118.26 13.88Q117.76 12.90 116.71 12.37Q115.67 11.84 114.07 11.84L114.07 11.84L110.32 11.84L110.32 33ZM130.73 33.38L130.73 33.38Q128.91 33.38 127.47 32.74Q126.03 32.09 125.20 30.82Q124.37 29.55 124.37 27.65L124.37 27.65Q124.37 26.06 124.96 24.98Q125.55 23.91 126.57 23.26Q127.58 22.61 128.87 22.27Q130.16 21.93 131.58 21.79L131.58 21.79Q133.24 21.62 134.26 21.47Q135.27 21.33 135.74 21.01Q136.21 20.70 136.21 20.08L136.21 20.08L136.21 19.99Q136.21 19.17 135.87 18.61Q135.53 18.05 134.86 17.75Q134.20 17.45 133.22 17.45L133.22 17.45Q132.23 17.45 131.50 17.75Q130.76 18.05 130.30 18.54Q129.84 19.04 129.62 19.65L129.62 19.65L124.92 18.87Q125.41 17.21 126.56 16.05Q127.70 14.88 129.40 14.27Q131.10 13.65 133.22 13.65L133.22 13.65Q134.78 13.65 136.23 14.02Q137.68 14.39 138.84 15.16Q139.99 15.93 140.66 17.16Q141.34 18.39 141.34 20.13L141.34 20.13L141.34 33L136.49 33L136.49 30.35L136.31 30.35Q135.85 31.24 135.08 31.91Q134.32 32.59 133.23 32.98Q132.14 33.38 130.73 33.38ZM132.18 29.77L132.18 29.77Q133.39 29.77 134.31 29.29Q135.22 28.81 135.73 27.99Q136.25 27.17 136.25 26.16L136.25 26.16L136.25 24.10Q136.02 24.27 135.56 24.40Q135.10 24.54 134.54 24.64Q133.97 24.75 133.43 24.83Q132.88 24.92 132.45 24.97L132.45 24.97Q131.51 25.10 130.79 25.41Q130.08 25.72 129.68 26.22Q129.29 26.73 129.29 27.51L129.29 27.51Q129.29 28.25 129.67 28.75Q130.04 29.26 130.68 29.51Q131.32 29.77 132.18 29.77ZM141.59 13.89L152.92 13.89L152.92 17.81L141.59 17.81L141.59 13.89ZM144.23 27.86L144.23 9.35L149.35 9.35L149.35 27.41Q149.35 28.32 149.75 28.75Q150.16 29.19 151.10 29.19L151.10 29.19Q151.39 29.19 151.92 29.11Q152.45 29.04 152.72 28.97L152.72 28.97L153.45 32.81Q152.60 33.07 151.75 33.17Q150.91 33.27 150.14 33.27L150.14 33.27Q147.27 33.27 145.75 31.87Q144.23 30.47 144.23 27.86L144.23 27.86ZM159.11 21.94L159.11 21.94L159.11 33L153.98 33L153.98 7.54L159.01 7.54L159.01 18.66L158.60 18.66Q159.35 16.27 160.88 14.96Q162.41 13.65 164.83 13.65L164.83 13.65Q166.82 13.65 168.29 14.52Q169.77 15.38 170.58 17.00Q171.40 18.61 171.40 20.85L171.40 20.85L171.40 33L166.27 33L166.27 21.74Q166.27 19.96 165.35 18.95Q164.44 17.94 162.82 17.94L162.82 17.94Q161.74 17.94 160.89 18.41Q160.05 18.88 159.58 19.77Q159.11 20.66 159.11 21.94Z"></path></g>
        
      </svg>